{
  "accessors": [
    {
      "bufferView": 3,
      "componentType": 5126,
      "count": 4115,
      "max": [
        0.7978379130363464,
        2.290351629257202,
        2.6693687438964844
      ],
      "min": [
        -0.7784000039100647,
        -0.09724593162536621,
        -1.4227778911590576
      ],
      "type": "VEC3"
    },
    {
      "bufferView": 3,
      "byteOffset": 49380,
      "componentType": 5126,
      "count": 4115,
      "max": [
        0.9999493360519409,
        0.9994844794273376,
        0.9988608956336975
      ],
      "min": [
        -0.9999493360519409,
        -0.9999740719795227,
        -0.9999492764472961
      ],
      "type": "VEC3"
    },
    {
      "bufferView": 2,
      "componentType": 5126,
      "count": 4115,
      "max": [
        0.9627214670181274,
        0.9996241331100464
      ],
      "min": [
        0.00037588863051496446,
        0.00037588863051496446
      ],
      "type": "VEC2"
    },
    {
      "bufferView": 1,
      "componentType": 5125,
      "count": 20928,
      "type": "SCALAR"
    },
    {
      "bufferView": 3,
      "byteOffset": 98760,
      "componentType": 5126,
      "count": 1118,
      "max": [
        0.27410662174224854,
        1.3875045776367188,
        2.3189611434936523
      ],
      "min": [
        -0.27410662174224854,
        1.1316492557525635,
        2.063105821609497
      ],
      "type": "VEC3"
    },
    {
      "bufferView": 3,
      "byteOffset": 112176,
      "componentType": 5126,
      "count": 1118,
      "max": [
        1.0,
        0.9991931915283203,
        0.9991931915283203
      ],
      "min": [
        -1.0,
        -0.9991931915283203,
        -0.9991931915283203
      ],
      "type": "VEC3"
    },
    {
      "bufferView": 2,
      "byteOffset": 32920,
      "componentType": 5126,
      "count": 1118,
      "max": [
        1.0000001192092896,
        1.0
      ],
      "min": [
        0.0,
        0.0
      ],
      "type": "VEC2"
    },
    {
      "bufferView": 1,
      "byteOffset": 83712,
      "componentType": 5125,
      "count": 5760,
      "type": "SCALAR"
    },
    {
      "bufferView": 5,
      "componentType": 5126,
      "count": 29,
      "max": [
        1.0,
        0.37720566987991333,
        1.0000003576278687,
        0.0,
        0.999231219291687,
        1.0,
        0.053775668144226074,
        0.0,
        0.9428020119667053,
        0.99913489818573,
        1.0,
        0.0,
        1.6507389545440674,
        1.3171577453613281,
        1.6332066059112549,
        1.0
      ],
      "min": [
        -0.7382344603538513,
        -0.37720584869384766,
        -1.0000003576278687,
        0.0,
        -0.9992311000823975,
        -0.9428024291992188,
        -0.96097731590271,
        0.0,
        -0.9579072594642639,
        -0.9253135919570923,
        -0.3077072501182556,
        0.0,
        -2.8201913833618164,
        -2.0873806476593018,
        -0.6770576238632202,
        1.0
      ],
      "type": "MAT4"
    },
    {
      "bufferView": 0,
      "componentType": 5123,
      "count": 4115,
      "type": "VEC4"
    },
    {
      "bufferView": 4,
      "componentType": 5126,
      "count": 4115,
      "max": [
        1.0,
        0.49999910593032837,
        0.3069262206554413,
        0.1433761566877365
      ],
      "min": [
        0.32343611121177673,
        0.0,
        0.0,
        0.0
      ],
      "type": "VEC4"
    },
    {
      "bufferView": 0,
      "byteOffset": 32920,
      "componentType": 5123,
      "count": 1118,
      "type": "VEC4"
    },
    {
      "bufferView": 4,
      "byteOffset": 65840,
      "componentType": 5126,
      "count": 1118,
      "max": [
        0.9813464879989624,
        0.05364978685975075,
        0.010940483771264553,
        0.0
      ],
      "min": [
        0.9463502168655396,
        0.01865352876484394,
        0.0,
        0.0
      ],
      "type": "VEC4"
    }
  ],
  "asset": {
    "extras": {
      "author": "Dakota.Hinkle (https://sketchfab.com/Dakota.Hinkle)",
      "license": "CC-BY-4.0 (http://creativecommons.org/licenses/by/4.0/)",
      "source": "https://sketchfab.com/3d-models/rabbit-073eef14ae3c4d06808498c3ba895e67",
      "title": "Rabbit"
    },
    "generator": "Sketchfab-13.31.0",
    "version": "2.0"
  },
  "bufferViews": [
    {
      "buffer": 0,
      "byteLength": 41864,
      "byteStride": 8,
      "name": "shortBufferViews",
      "target": 34962
    },
    {
      "buffer": 0,
      "byteLength": 106752,
      "byteOffset": 41864,
      "name": "floatBufferViews",
      "target": 34963
    },
    {
      "buffer": 0,
      "byteLength": 41864,
      "byteOffset": 148616,
      "byteStride": 8,
      "name": "floatBufferViews",
      "target": 34962
    },
    {
      "buffer": 0,
      "byteLength": 125592,
      "byteOffset": 190480,
      "byteStride": 12,
      "name": "floatBufferViews",
      "target": 34962
    },
    {
      "buffer": 0,
      "byteLength": 83728,
      "byteOffset": 316072,
      "byteStride": 16,
      "name": "floatBufferViews",
      "target": 34962
    },
    {
      "buffer": 0,
      "byteLength": 1856,
      "byteOffset": 399800,
      "name": "floatBufferViews"
    }
  ],
  "buffers": [
    {
      "byteLength": 401656,
      "uri": "scene.bin"
    }
  ],
  "images": [
    {
      "uri": "textures/Material_baseColor.png"
    },
    {
      "uri": "textures/Material_metallicRoughness.png"
    }
  ],
  "materials": [
    {
      "doubleSided": true,
      "name": "Material",
      "pbrMetallicRoughness": {
        "baseColorTexture": {
          "index": 0
        },
        "metallicFactor": 0.0,
        "metallicRoughnessTexture": {
          "index": 1
        }
      }
    },
    {
      "doubleSided": true,
      "name": "Material.001",
      "pbrMetallicRoughness": {
        "baseColorFactor": [
          0.0,
          0.0,
          0.0,
          1.0
        ],
        "metallicFactor": 0.763636,
        "roughnessFactor": 0.154545
      }
    }
  ],
  "meshes": [
    {
      "name": "Object_0",
      "primitives": [
        {
          "attributes": {
            "JOINTS_0": 9,
            "NORMAL": 1,
            "POSITION": 0,
            "TEXCOORD_0": 2,
            "WEIGHTS_0": 10
          },
          "indices": 3,
          "material": 0,
          "mode": 4
        }
      ]
    },
    {
      "name": "Object_1",
      "primitives": [
        {
          "attributes": {
            "JOINTS_0": 11,
            "NORMAL": 5,
            "POSITION": 4,
            "TEXCOORD_0": 6,
            "WEIGHTS_0": 12
          },
          "indices": 7,
          "material": 1,
          "mode": 4
        }
      ]
    }
  ],
  "nodes": [
    {
      "children": [
        1
      ],
      "matrix": [
        1.0,
        0.0,
        0.0,
        0.0,
        0.0,
        2.220446049250313e-16,
        -1.0,
        0.0,
        0.0,
        1.0,
        2.220446049250313e-16,
        0.0,
        0.0,
        0.0,
        0.0,
        1.0
      ],
      "name": "Sketchfab_model"
    },
    {
      "children": [
        2
      ],
      "name": "root"
    },
    {
      "children": [
        3
      ],
      "matrix": [
        1.0,
        0.0,
        0.0,
        0.0,
        0.0,
        2.220446049250313e-16,
        1.0,
        0.0,
        0.0,
        -1.0,
        2.220446049250313e-16,
        0.0,
        0.0,
        0.0,
        0.0,
        1.0
      ],
      "name": "GLTF_SceneRootNode"
    },
    {
      "children": [
        4
      ],
      "name": "Armature_29"
    },
    {
      "children": [
        5,
        7,
        8,
        6
      ],
      "name": "GLTF_created_0"
    },
    {
      "children": [
        9,
        28,
        29,
        33
      ],
      "name": "GLTF_created_0_rootJoint"
    },
    {
      "name": "Rabbit_28"
    },
    {
      "mesh": 0,
      "name": "Object_7",
      "skin": 0
    },
    {
      "mesh": 1,
      "name": "Object_8",
      "skin": 0
    },
    {
      "children": [
        10
      ],
      "name": "spine 1_18",
      "rotation": [
        -0.10258260369300842,
        0.6996262073516846,
        -0.10258255898952484,
        0.6996262669563293
      ],
      "scale": [
        1.0000001192092896,
        1.0,
        1.0
      ],
      "translation": [
        0.009718567132949829,
        0.3403075039386749,
        -0.9210038781166077
      ]
    },
    {
      "children": [
        11
      ],
      "name": "spine 2_17",
      "rotation": [
        -0.06557074189186096,
        0.026493355631828308,
        0.3813687562942505,
        0.9217138886451721
      ],
      "scale": [
        1.0000001192092896,
        0.9999999403953552,
        1.0
      ],
      "translation": [
        -1.810360039655734e-08,
        0.7668864727020264,
        -9.35735822160666e-10
      ]
    },
    {
      "children": [
        12
      ],
      "name": "spine 3_16",
      "rotation": [
        0.01104968972504139,
        -0.032745111733675,
        0.35788941383361816,
        0.9331242442131042
      ],
      "scale": [
        1.0,
        0.9999999403953552,
        0.9999998807907104
      ],
      "translation": [
        -3.107363113485917e-07,
        0.755008339881897,
        -5.859084883930166e-10
      ]
    },
    {
      "children": [
        13
      ],
      "name": "spine 4_15",
      "rotation": [
        -0.0022170140873640776,
        -0.040935903787612915,
        0.2600916028022766,
        0.9647132754325867
      ],
      "scale": [
        0.9999999403953552,
        0.9999998807907104,
        1.0
      ],
      "translation": [
        -2.055560059943673e-07,
        0.8039624691009521,
        -7.981907579335257e-09
      ]
    },
    {
      "children": [
        14,
        20,
        24
      ],
      "name": "spine 5_14",
      "rotation": [
        0.00025259077665396035,
        0.001177504425868392,
        0.3756119906902313,
        0.9267762303352356
      ],
      "scale": [
        1.0,
        0.9999999403953552,
        0.9999998807907104
      ],
      "translation": [
        -1.3729975023579755e-07,
        0.8128284811973572,
        -6.908447591769118e-09
      ]
    },
    {
      "children": [
        15
      ],
      "name": "neck_5",
      "rotation": [
        0.10738876461982727,
        -0.03011542744934559,
        -0.8495731949806213,
        0.5155445337295532
      ],
      "scale": [
        0.9999999403953552,
        0.9999998211860657,
        1.0
      ],
      "translation": [
        6.125940643642025e-08,
        0.5572121739387512,
        7.881233443640667e-09
      ]
    },
    {
      "children": [
        16,
        17,
        18,
        19
      ],
      "name": "head_4",
      "rotation": [
        0.021825101226568222,
        0.2174125760793686,
        0.10603705793619156,
        0.9700575470924377
      ],
      "scale": [
        1.0000001192092896,
        1.0000001192092896,
        1.0
      ],
      "translation": [
        8.560037678684296e-10,
        0.45310890674591064,
        -2.995811598793807e-08
      ]
    },
    {
      "name": "ear.L_0",
      "rotation": [
        0.44043445587158203,
        0.18062680959701538,
        -0.6179661750793457,
        0.6257069706916809
      ],
      "scale": [
        1.0000001192092896,
        1.0,
        1.0
      ],
      "translation": [
        0.1939772069454193,
        0.22512514889240265,
        0.13922415673732758
      ]
    },
    {
      "name": "ear.R_1",
      "rotation": [
        0.6275675296783447,
        0.7495390772819519,
        -0.14995215833187103,
        0.14786644279956818
      ],
      "scale": [
        1.0000003576278687,
        1.0000001192092896,
        0.9999999403953552
      ],
      "translation": [
        0.19397717714309692,
        0.22512519359588623,
        -0.1586616337299347
      ]
    },
    {
      "name": "jaw_2",
      "rotation": [
        0.2542320787906647,
        -0.6598225831985474,
        0.2542320489883423,
        0.6598228812217712
      ],
      "scale": [
        1.0,
        1.000000238418579,
        1.0
      ],
      "translation": [
        -0.5293405652046204,
        0.17378449440002441,
        -0.009718564338982105
      ]
    },
    {
      "name": "nose_3",
      "rotation": [
        6.451497824855323e-07,
        1.1211245976028295e-07,
        0.7732113599777222,
        0.6341484189033508
      ],
      "scale": [
        1.0,
        1.0,
        0.9999998807907104
      ],
      "translation": [
        -0.655981719493866,
        0.7012470960617065,
        2.119291195867845e-07
      ]
    },
    {
      "children": [
        21
      ],
      "name": "Upper arm.L_9",
      "rotation": [
        0.0520942397415638,
        0.24054783582687378,
        0.873370349407196,
        0.42029422521591187
      ],
      "scale": [
        1.0000001192092896,
        0.9999998807907104,
        1.0
      ],
      "translation": [
        0.062499336898326874,
        0.6978412866592407,
        0.15668819844722748
      ]
    },
    {
      "children": [
        22
      ],
      "name": "lower arm.L_8",
      "rotation": [
        -0.1681843250989914,
        -0.1331527978181839,
        -0.7088354825973511,
        0.6719647645950317
      ],
      "scale": [
        1.0,
        0.9999997615814209,
        0.9999998211860657
      ],
      "translation": [
        1.8253219025154976e-07,
        0.7734735012054443,
        3.7857937229546224e-08
      ]
    },
    {
      "children": [
        23
      ],
      "name": "Hand.L_7",
      "rotation": [
        0.05890316516160965,
        0.004840298555791378,
        -0.18996374309062958,
        0.9800106287002563
      ],
      "scale": [
        1.0,
        0.9999999403953552,
        1.0
      ],
      "translation": [
        1.4287022054304543e-07,
        0.7977187037467957,
        9.31574262175161e-10
      ]
    },
    {
      "name": "Paw.L_6",
      "rotation": [
        -0.02141493931412697,
        -0.010375828482210636,
        -0.4968312382698059,
        0.8675208687782288
      ],
      "scale": [
        1.0,
        0.9999999403953552,
        0.9999998211860657
      ],
      "translation": [
        -3.0447402821209835e-08,
        0.36504995822906494,
        4.030610512018029e-08
      ]
    },
    {
      "children": [
        25
      ],
      "name": "Upper arm.R_13",
      "rotation": [
        -0.8562844395637512,
        0.4744003117084503,
        -0.032529398798942566,
        0.2016509473323822
      ],
      "scale": [
        0.9999998807907104,
        0.9999998807907104,
        1.0
      ],
      "translation": [
        0.06249900534749031,
        0.697841227054596,
        -0.17612536251544952
      ]
    },
    {
      "children": [
        26
      ],
      "name": "lower arm.R_12",
      "rotation": [
        -0.22808359563350677,
        0.11857680976390839,
        0.6458295583724976,
        0.7189030647277832
      ],
      "scale": [
        1.0000001192092896,
        1.0000001192092896,
        1.0
      ],
      "translation": [
        2.7730897045330494e-07,
        0.7734735608100891,
        -3.853179819657271e-08
      ]
    },
    {
      "children": [
        27
      ],
      "name": "Hand.R_11",
      "rotation": [
        0.056382738053798676,
        0.029241463169455528,
        0.26173561811447144,
        0.963047444820404
      ],
      "scale": [
        1.0000001192092896,
        1.000000238418579,
        1.000000238418579
      ],
      "translation": [
        -7.210046959471583e-08,
        0.79771888256073,
        1.0210651879560828e-08
      ]
    },
    {
      "name": "Paw.R_10",
      "rotation": [
        0.01544755045324564,
        -0.08601608872413635,
        0.38137686252593994,
        0.9202794432640076
      ],
      "translation": [
        -5.678112557916393e-08,
        0.3650497794151306,
        -1.5140679821001868e-08
      ]
    },
    {
      "name": "tail_19",
      "rotation": [
        -0.2073243260383606,
        0.6758196353912354,
        -0.1964876651763916,
        0.6794682741165161
      ],
      "scale": [
        0.9999998211860657,
        0.9999997615814209,
        0.9999998211860657
      ],
      "translation": [
        -0.0015324726700782776,
        0.29331302642822266,
        -1.0788838863372803
      ]
    },
    {
      "children": [
        30
      ],
      "name": "upper leg.L_23",
      "rotation": [
        0.42763763666152954,
        0.6625177264213562,
        0.19502702355384827,
        0.583233118057251
      ],
      "scale": [
        0.9999997615814209,
        0.9999995827674866,
        0.999999463558197
      ],
      "translation": [
        0.12348669767379761,
        0.8601903319358826,
        -0.9028595685958862
      ]
    },
    {
      "children": [
        31
      ],
      "name": "Lower leg.L_22",
      "rotation": [
        -0.02771587297320366,
        0.1972113996744156,
        0.916698694229126,
        0.34641459584236145
      ],
      "scale": [
        1.0000001192092896,
        1.0000001192092896,
        1.0000001192092896
      ],
      "translation": [
        -3.475625831583784e-08,
        0.978069543838501,
        1.1403926691855304e-07
      ]
    },
    {
      "children": [
        32
      ],
      "name": "foot.L_21",
      "rotation": [
        0.005962593946605921,
        -0.041533954441547394,
        -0.7258729934692383,
        0.6865478157997131
      ],
      "scale": [
        0.9999998807907104,
        0.9999999403953552,
        0.9999998807907104
      ],
      "translation": [
        5.558070625966138e-08,
        1.2754653692245483,
        1.6860356666370535e-08
      ]
    },
    {
      "name": "Toes.L_20",
      "rotation": [
        -0.03751663118600845,
        -0.01223116833716631,
        -0.2134953737258911,
        0.9761468172073364
      ],
      "scale": [
        1.0000001192092896,
        1.0000001192092896,
        1.0000001192092896
      ],
      "translation": [
        -1.4760801470004026e-08,
        0.88897305727005,
        -8.186187727687866e-08
      ]
    },
    {
      "children": [
        34
      ],
      "name": "upper leg.R_27",
      "rotation": [
        0.4975201487541199,
        -0.6137326955795288,
        -0.053612545132637024,
        0.6106812357902527
      ],
      "scale": [
        0.9999995231628418,
        0.9999996423721313,
        0.9999997019767761
      ],
      "translation": [
        -0.12348669767379761,
        0.8601903319358826,
        -0.9028595685958862
      ]
    },
    {
      "children": [
        35
      ],
      "name": "Lower leg.R_26",
      "rotation": [
        0.003401411697268486,
        -0.2843775749206543,
        -0.8979666829109192,
        0.33581802248954773
      ],
      "scale": [
        1.0000001192092896,
        1.0,
        1.0
      ],
      "translation": [
        -2.5112811385952227e-08,
        0.9780696630477905,
        1.4981289098159323e-08
      ]
    },
    {
      "children": [
        36
      ],
      "name": "foot.R_25",
      "rotation": [
        0.04050019383430481,
        0.027276189997792244,
        0.732150673866272,
        0.6793903112411499
      ],
      "scale": [
        1.0,
        0.9999998807907104,
        0.9999999403953552
      ],
      "translation": [
        2.7007715175386693e-08,
        1.2754653692245483,
        -4.844921974722638e-08
      ]
    },
    {
      "name": "Toes.R_24",
      "rotation": [
        -0.026453806087374687,
        0.009645267389714718,
        0.024518966674804688,
        0.9993027448654175
      ],
      "scale": [
        1.0,
        1.0,
        1.0000001192092896
      ],
      "translation": [
        2.2201037452873607e-08,
        0.88897305727005,
        -8.201516976669154e-08
      ]
    }
  ],
  "samplers": [
    {
      "magFilter": 9729,
      "minFilter": 9987,
      "wrapS": 10497,
      "wrapT": 10497
    }
  ],
  "scene": 0,
  "scenes": [
    {
      "name": "Sketchfab_Scene",
      "nodes": [
        0
      ]
    }
  ],
  "skins": [
    {
      "inverseBindMatrices": 8,
      "joints": [
        5,
        9,
        10,
        11,
        12,
        13,
        14,
        15,
        16,
        17,
        18,
        19,
        20,
        21,
        22,
        23,
        24,
        25,
        26,
        27,
        28,
        29,
        30,
        31,
        32,
        33,
        34,
        35,
        36
      ],
      "skeleton": 5
    }
  ],
  "textures": [
    {
      "sampler": 0,
      "source": 0
    },
    {
      "sampler": 0,
      "source": 1
    }
  ]
}
